<?xml version="1.0" encoding="utf-8"?>
<!-- Generator: Adobe Illustrator 19.2.0, SVG Export Plug-In . SVG Version: 6.00 Build 0)  -->
<svg version="1.1" id="Ebene_1" xmlns="http://www.w3.org/2000/svg" xmlns:xlink="http://www.w3.org/1999/xlink" x="0px" y="0px"
	 viewBox="0 0 417.4947815 896.6797485" style="enable-background:new 0 0 417.4947815 896.6797485;" xml:space="preserve">
<style type="text/css">
	.st0{fill:#FFFFFF;}
</style>
<path class="st0" d="M210.3201752,239.1942444l-72.7004395-41.8097229l72.7004395-42.1871033l72.7004547,42.1871033
	l115.3952332-66.5887451l7.8999329,61.7595062c0.1773987,1.3882599,2.2023621,1.3431091,2.3184814-0.0516052l8.8605042-72.7172165
	L208.7473907,0L0,119.7864609v155.1928711l79.7366104,45.0520325l15.2379761,235.9957886
	c0.360611,3.1971436,5.4262848,3.1158447,5.6759415-0.0915527l16.9144211-214.8945618l51.2342758,29.4734497l31.9907379,521.628418
	c0.6947784,6.1555786,9.7165833,5.9994507,10.1971893-0.1767578L251.55896,370.6138306l129.2781677-74.5093079
	l16.2506409,127.0309448c0.3657532,2.8578186,4.5372314,2.7662048,4.7759399-0.1051331l15.6302795-148.0509949
	l-134.4737549-77.5948181L210.3201752,239.1942444z"/>
</svg>
