<?xml version="1.0" encoding="utf-8"?>
<!-- Generator: Adobe Illustrator 19.1.0, SVG Export Plug-In . SVG Version: 6.00 Build 0)  -->
<svg version="1.1" id="Ebene_1" xmlns="http://www.w3.org/2000/svg" xmlns:xlink="http://www.w3.org/1999/xlink" x="0px" y="0px"
	 viewBox="0 0 1024 358" style="enable-background:new 0 0 1024 358;" xml:space="preserve">
<style type="text/css">
	.st0{fill:#333333;}
	.st1{fill-rule:evenodd;clip-rule:evenodd;fill:#E42620;}
	.st2{fill-rule:evenodd;clip-rule:evenodd;fill:#333333;}
	.st3{fill-rule:evenodd;clip-rule:evenodd;fill:#1A1A1A;}
</style>
<g>
	<path class="st0" d="M389.7,216.2c-6.3,1.3-12.9,2.1-20.2,2.1c-26.8,0-40.2-13.1-40.2-39.2c0-24.2,13.3-36.4,40.2-36.4
		c7.2,0,13.9,0.8,20.2,2.1v10.9c-6.3-1.3-13.1-2.1-20.9-2.1c-17.5,0-26.1,8.4-26.1,25.5c0,18.8,8.6,28.4,26.1,28.4
		c7.8,0,14.7-0.8,20.9-2.1V216.2z M471.7,142.7v75.6h-9.1l-2.3-9.7c-9.1,6.5-18.5,9.7-27.6,9.7c-17.3,0-26.1-9.3-26.1-28.2v-47.4
		H420v47.6c0,11.2,5.5,16.9,16.8,16.9c7.6,0,14.8-3.2,21.7-9.7v-54.8H471.7z M506.6,205.2c4.4,1.3,9.7,2.1,16,2.1
		c16.8,0,25.1-9.7,25.1-28.7c0-16.2-7.6-24.2-22.8-24.2c-6.9,0-12.9,1.1-18.3,3.8V205.2z M493.2,115.3h13.3v31
		c5.7-2.5,11.8-3.6,18.5-3.6c23.8,0,35.8,12.2,35.8,36.2c0,26.3-12.6,39.4-37.7,39.4c-10.9,0-20.8-1.1-29.9-3V115.3z M609.9,142.7
		c21.5,0,32.2,10.7,32.2,32c0,2.9-0.2,6.1-0.6,9.5h-53.1c0,15.6,9.1,23.2,27,23.2c8.8,0,16.4-0.9,23-2.8v10.9
		c-6.7,1.9-14.8,2.8-24.4,2.8c-25.9,0-39-12.9-39-38.6C575.1,155.1,586.7,142.7,609.9,142.7L609.9,142.7z M588.4,173.2h40.9
		c-0.4-13.1-6.7-19.8-19.4-19.8C596.4,153.4,589.4,160.1,588.4,173.2L588.4,173.2z M657.1,130.6h14.1l3,12.2h18.8v15h-16.7v34.8
		c0,7,3,10.7,9.1,10.7h7.6v15h-16.9c-12.6,0-19-6.9-19-20.4V130.6z M738,142.7c22.8,0,34.3,11.6,34.3,35.2c0,3-0.2,6.1-0.6,9.3
		h-50.1c0,10.7,7.8,16,23.4,16c7.6,0,15.2-0.8,22.8-2.3v15.2c-6.7,1.3-14.8,2.1-24.4,2.1c-27.4,0-41.1-12.9-41.1-38.6
		C702.4,155.1,714.2,142.7,738,142.7L738,142.7z M721.7,174h32.2v-0.6c0-10.5-5.3-15.6-15.8-15.6C728,157.8,722.4,163.1,721.7,174
		L721.7,174z M842.6,216.2c-6.3,1.3-12.8,2.1-19.6,2.1c-26.8,0-40.2-13.1-40.2-39.2c0-24.2,13.3-36.4,40.2-36.4
		c6.8,0,13.3,0.8,19.6,2.1v15.2c-6.3-1.5-12.4-2.3-18.1-2.3c-15,0-22.7,7.2-22.7,21.3c0,16,7.6,24.2,22.7,24.2
		c5.7,0,11.8-0.8,18.1-2.3V216.2z M855.1,218.3v-103h19v37.1c5.9-6.5,13.5-9.7,22.8-9.7c17.9,0,26.8,9.3,26.8,28v47.6h-19.2v-47.6
		c0-8.4-4-12.6-12.4-12.6c-6.1,0-12.2,2.5-18.1,7.4v52.7H855.1z"/>
	<polygon class="st1" points="204.9,200.2 168.1,179.1 100.2,218.3 204.9,278.7 309.6,218.3 241.6,179.1 	"/>
	<polygon class="st2" points="168.1,179.1 204.9,157.8 241.6,179.1 309.6,139.9 204.9,79.3 100.2,139.9 	"/>
	<polygon class="st3" points="168.1,179.1 100.2,139.9 100.2,218.3 	"/>
</g>
</svg>
