<?xml version="1.0" encoding="utf-8"?>
<!-- Generator: Adobe Illustrator 19.1.0, SVG Export Plug-In . SVG Version: 6.00 Build 0)  -->
<!DOCTYPE svg PUBLIC "-//W3C//DTD SVG 1.1//EN" "http://www.w3.org/Graphics/SVG/1.1/DTD/svg11.dtd">
<svg version="1.1" id="Ebene_1" xmlns="http://www.w3.org/2000/svg" xmlns:xlink="http://www.w3.org/1999/xlink" x="0px" y="0px"
	 viewBox="-249 701 400 200" style="enable-background:new -249 701 400 200;" xml:space="preserve">
<style type="text/css">
	.st0{fill:#AFCB37;}
	.st1{fill:#333333;}
</style>
<g>
	<g>
		<g>
			<path class="st0" d="M-151.2,773.7c0.6,0.1,1.2,0.2,1.8,0.3l-4.9,13.5l-6.7,18.6l15.4-12.3l11.3-9.2c2.8,4.1,4.3,8.9,4.4,13.9
				c0.3,14.2-11.1,26-25.3,26.3c-1.6,0.1-3.2-0.1-4.8-0.4c-12.2-2-21.3-12.6-21.5-25c-0.1-14.2,11.3-26,25.5-26.3
				C-154.5,773.2-152.9,773.4-151.2,773.7L-151.2,773.7 M-150.4,768.2c-1.9-0.4-3.8-0.5-5.8-0.5c-17.3,0.3-31.1,14.7-30.8,31.9
				c0.3,15.3,11.5,27.8,26.1,30.3c1.9,0.3,3.8,0.5,5.8,0.4c17.4-0.3,31.2-14.6,30.8-31.9c-0.1-8.5-3.6-16-9.2-21.5l-15.6,12.6
				l6.8-18.8C-144.9,769.5-147.5,768.6-150.4,768.2L-150.4,768.2z"/>
		</g>
	</g>
	<g>
		<path class="st1" d="M-107.2,780.5h-6.4V773h6.4V780.5z M-107.2,819.6h-6.4v-33.8h6.4V819.6z"/>
		<path class="st1" d="M-84.3,790.9h-6.1v21.2c0,1.9,0.9,3.1,2.5,3.1c0.9,0,1.8-0.2,3.5-0.9v5.2c-2.8,0.6-3.8,0.8-5.3,0.8
			c-4.8,0-7.2-2.6-7.2-8.1V791h-4.6V786h4.6v-10.8h6.4v10.7h6.1L-84.3,790.9L-84.3,790.9z"/>
		<path class="st1" d="M-74.3,804.4c0.5,6.9,3.9,10.8,9.7,10.8c3.9,0,6.6-1.9,8.1-5.9h6.1c-1.6,7.1-7,11.3-14.5,11.3
			c-9.4,0-16.1-7.2-16.1-17.8s6.4-17.7,15.9-17.7c6.7,0,11.6,3.5,13.8,10.1c0.8,2.5,1.2,5.2,1.3,9.2L-74.3,804.4L-74.3,804.4z
			 M-56.4,799.6c-0.3-6.1-3.3-9.5-8.5-9.5c-5.2,0-9,3.9-9.3,9.5C-74.3,799.6-56.4,799.6-56.4,799.6z"/>
		<path class="st1" d="M-35.9,785.9v5.2c1.3-1.9,1.9-2.8,2.8-3.5c1.5-1.6,3.9-2.7,6-2.7c1.2,0,2.4,0.3,3.5,0.8v5.8
			c-1.3-0.3-2-0.3-3-0.3c-5.1,0-9.2,4.6-9.2,10.6v17.7h-6.4v-33.7H-35.9z"/>
		<path class="st1" d="M-18.2,797c0.3-3.9,1-6.3,2.8-8.2c2.1-2.4,6.2-3.8,11-3.8c8.3,0,13.2,3.9,13.2,11v15.9c0,2.7,0.4,3.2,1.8,3.2
			c0.6,0,0.9-0.1,1.6-0.3v5c-1.5,0.4-2.9,0.5-4.2,0.5c-3.1,0-4.5-1.3-5-4.6c-3.4,3.4-7.2,5-11.6,5c-6.6,0-11-4.1-11-10
			c0-5.4,3.3-8.8,10.2-10.2l7.4-1.4c4.1-0.8,4.9-1.4,4.9-3.4c0-3.2-2.9-5.2-7.4-5.2c-3.2,0-5.9,1-6.8,2.9c-0.6,0.9-0.7,1.6-0.8,4.1
			L-18.2,797L-18.2,797z M2.9,802.3c-1.2,0.5-2.3,0.8-3.9,1.2l-6.6,1.5c-3.9,0.9-5.6,2.5-5.6,5.1c0,3.1,2.5,5.1,6.3,5.1
			c5.4,0,9.9-3.9,9.9-8.8L2.9,802.3L2.9,802.3z"/>
		<path class="st1" d="M31.7,790.9h-6.1v21.2c0,1.9,0.9,3.1,2.5,3.1c0.9,0,1.8-0.2,3.5-0.9v5.2c-2.8,0.6-3.8,0.8-5.3,0.8
			c-4.8,0-7.2-2.6-7.2-8.1V791h-4.6V786h4.6v-10.8h6.4v10.7h6.1L31.7,790.9L31.7,790.9z"/>
		<path class="st1" d="M44.4,780.5h-6.5V773h6.4L44.4,780.5L44.4,780.5z M44.4,819.6h-6.5v-33.8h6.4L44.4,819.6L44.4,819.6z"/>
		<path class="st1" d="M61.2,819.6l-11.5-33.8h6.8l5.7,18.1c0.7,2.1,1.8,6.3,2.7,9.4c0.1-0.5,0.2-1,0.3-1.4l0.6-2.5
			c0.1-0.6,1.2-4.3,1.5-5.3l5.7-18.2h6.9l-11.6,33.8L61.2,819.6L61.2,819.6z"/>
	</g>
</g>
</svg>
