<?xml version="1.0" encoding="UTF-8" standalone="no"?>
<svg width="352px" height="42px" viewBox="0 0 352 42" version="1.1" xmlns="http://www.w3.org/2000/svg" xmlns:xlink="http://www.w3.org/1999/xlink">
    <!-- Generator: Sketch 41 (35326) - http://www.bohemiancoding.com/sketch -->
    <title>logo</title>
    <desc>Created with Sketch.</desc>
    <defs></defs>
    <g id="Page-1" stroke="none" stroke-width="1" fill="none" fill-rule="evenodd">
        <g id="logo">
            <path d="M3.9321,27.7728 C3.9031,27.0348 3.8321,26.3808 3.7191,25.8128 C3.6051,25.2448 3.4061,24.7408 3.1221,24.2998 C2.8381,23.8598 2.4611,23.4548 1.9931,23.0848 C1.5241,22.7158 0.9341,22.3608 0.2241,22.0198 L0.2241,20.0598 C0.9341,19.7178 1.5241,19.3708 1.9931,19.0148 C2.4611,18.6598 2.8381,18.2548 3.1221,17.8008 C3.4061,17.3468 3.6051,16.8348 3.7191,16.2658 C3.8321,15.6988 3.9031,15.0448 3.9321,14.3058 L4.0601,10.0438 C4.1171,8.5948 4.2871,7.2948 4.5711,6.1448 C4.8551,4.9938 5.3241,4.0208 5.9781,3.2248 C6.6311,2.4298 7.5051,1.8188 8.5991,1.3928 C9.6921,0.9668 11.0921,0.7538 12.7961,0.7538 L13.6271,0.7538 C13.8971,0.7538 14.2731,0.7818 14.7571,0.8388 C15.0131,2.0038 15.1411,2.9838 15.1411,3.7798 C15.1411,4.6308 15.0131,5.6258 14.7571,6.7628 L13.4361,6.7628 C12.8671,6.7628 12.4131,6.8628 12.0721,7.0608 C11.7311,7.2598 11.4751,7.5658 11.3051,7.9778 C11.1341,8.3888 11.0281,8.9078 10.9851,9.5328 C10.9431,10.1578 10.9221,10.9108 10.9221,11.7918 C10.9221,13.3258 10.8641,14.6038 10.7511,15.6268 C10.6371,16.6498 10.4661,17.5018 10.2401,18.1838 C10.0121,18.8658 9.7281,19.4268 9.3871,19.8678 C9.0461,20.3078 8.6481,20.6988 8.1941,21.0388 C8.6481,21.3808 9.0461,21.7708 9.3871,22.2118 C9.7281,22.6528 10.0121,23.2198 10.2401,23.9158 C10.4661,24.6128 10.6371,25.4718 10.7511,26.4948 C10.8641,27.5178 10.9221,28.7958 10.9221,30.3298 C10.9221,31.2108 10.9431,31.9648 10.9851,32.5878 C11.0281,33.2138 11.1341,33.7328 11.3051,34.1448 C11.4751,34.5558 11.7311,34.8618 12.0721,35.0608 C12.4131,35.2598 12.8671,35.3588 13.4361,35.3588 L14.7571,35.3588 C15.0131,36.5228 15.1411,37.5188 15.1411,38.3428 C15.1411,39.1658 15.0131,40.1468 14.7571,41.2838 C14.2731,41.3398 13.8971,41.3678 13.6271,41.3678 L12.7961,41.3678 C11.0921,41.3678 9.6921,41.1558 8.5991,40.7288 C7.5051,40.3028 6.6311,39.6918 5.9781,38.8968 C5.3241,38.1008 4.8551,37.1278 4.5711,35.9768 C4.2871,34.8258 4.1171,33.5268 4.0601,32.0778 L3.9321,27.7728 Z" id="Fill-1303" fill="#B2314A"></path>
            <path d="M338.5894,35.3589 C339.1574,35.3589 339.6114,35.2599 339.9534,35.0599 C340.2944,34.8619 340.5494,34.5559 340.7204,34.1449 C340.8904,33.7329 340.9974,33.2139 341.0404,32.5879 C341.0824,31.9639 341.1044,31.2109 341.1044,30.3299 C341.1044,28.7959 341.1604,27.5179 341.2744,26.4939 C341.3884,25.4719 341.5584,24.6129 341.7864,23.9159 C342.0134,23.2199 342.2974,22.6519 342.6374,22.2119 C342.9794,21.7709 343.3764,21.3799 343.8314,21.0389 C343.3764,20.6989 342.9794,20.3079 342.6374,19.8679 C342.2974,19.4269 342.0134,18.8659 341.7864,18.1839 C341.5584,17.5019 341.3884,16.6499 341.2744,15.6269 C341.1604,14.6039 341.1044,13.3259 341.1044,11.7909 C341.1044,10.9109 341.0824,10.1579 341.0404,9.5329 C340.9974,8.9079 340.8904,8.3889 340.7204,7.9769 C340.5494,7.5649 340.2944,7.2599 339.9534,7.0609 C339.6114,6.8629 339.1574,6.7629 338.5894,6.7629 L337.2684,6.7629 C337.0124,5.6259 336.8844,4.6309 336.8844,3.7789 C336.8844,2.9839 337.0124,2.0039 337.2684,0.8389 C337.7514,0.7819 338.1274,0.7539 338.3974,0.7539 L339.2284,0.7539 C340.9334,0.7539 342.3324,0.9669 343.4274,1.3929 C344.5194,1.8189 345.3934,2.4299 346.0474,3.2249 C346.7004,4.0209 347.1704,4.9939 347.4534,6.1449 C347.7374,7.2949 347.9084,8.5949 347.9654,10.0439 L348.0934,14.3059 C348.1214,15.0449 348.1924,15.6979 348.3064,16.2659 C348.4194,16.8349 348.6194,17.3469 348.9024,17.8009 C349.1864,18.2549 349.5634,18.6599 350.0324,19.0149 C350.5014,19.3709 351.0914,19.7179 351.8004,20.0589 L351.8004,22.0199 C351.0914,22.3609 350.5014,22.7159 350.0324,23.0849 C349.5634,23.4549 349.1864,23.8599 348.9024,24.2999 C348.6194,24.7409 348.4194,25.2449 348.3064,25.8129 C348.1924,26.3809 348.1214,27.0349 348.0934,27.7729 L347.9654,32.0779 C347.9084,33.5269 347.7374,34.8259 347.4534,35.9769 C347.1704,37.1279 346.7004,38.1009 346.0474,38.8969 C345.3934,39.6919 344.5194,40.3029 343.4274,40.7289 C342.3324,41.1549 340.9334,41.3679 339.2284,41.3679 L338.3974,41.3679 C338.1274,41.3679 337.7514,41.3399 337.2684,41.2829 C337.0124,40.1459 336.8844,39.1659 336.8844,38.3429 C336.8844,37.5179 337.0124,36.5229 337.2684,35.3589 L338.5894,35.3589 Z" id="Fill-1305" fill="#B2314A"></path>
            <path d="M31.2406,20.2607 C31.3826,20.3177 31.6246,20.3607 31.9646,20.3887 C32.3056,20.4177 32.6606,20.4317 33.0306,20.4317 C34.2516,20.4317 35.2466,20.0757 36.0136,19.3657 C36.7816,18.6557 37.1646,17.5757 37.1646,16.1267 C37.1646,15.2737 37.0436,14.5567 36.8026,13.9747 C36.5606,13.3927 36.2266,12.9237 35.8006,12.5687 C35.3746,12.2127 34.8766,11.9647 34.3096,11.8217 C33.7406,11.6797 33.1436,11.6097 32.5186,11.6097 L31.9226,11.6097 C31.6946,11.6097 31.4676,11.6237 31.2406,11.6517 L31.2406,20.2607 Z M23.8676,5.8567 C24.5206,5.7707 25.5226,5.6497 26.8716,5.4937 C28.2206,5.3377 29.9196,5.2587 31.9646,5.2587 C33.4706,5.2587 34.9906,5.4017 36.5256,5.6847 C38.0596,5.9697 39.4446,6.5027 40.6806,7.2837 C41.9166,8.0657 42.9176,9.1657 43.6846,10.5867 C44.4516,12.0077 44.8356,13.8547 44.8356,16.1267 C44.8356,18.1447 44.5306,19.8207 43.9196,21.1557 C43.3076,22.4917 42.4986,23.5567 41.4906,24.3527 C40.4816,25.1477 39.3306,25.7157 38.0376,26.0567 C36.7446,26.3977 35.4176,26.5677 34.0536,26.5677 C33.5136,26.5677 32.9666,26.5467 32.4126,26.5037 C31.8586,26.4617 31.4676,26.4127 31.2406,26.3547 L31.2406,36.2847 C30.5016,36.4267 29.8346,36.5257 29.2376,36.5837 C28.6416,36.6397 28.0866,36.6677 27.5756,36.6677 C26.5806,36.6677 25.3446,36.5407 23.8676,36.2847 L23.8676,5.8567 Z" id="Fill-1307" fill="#343433"></path>
            <path d="M61.4135,30.4039 C65.0495,30.4039 66.8685,27.3349 66.8685,21.1979 C66.8685,15.0049 65.0635,11.9069 61.4565,11.9069 C57.7625,11.9069 55.9155,15.0049 55.9155,21.1979 C55.9155,24.2959 56.3635,26.6039 57.2585,28.1239 C58.1535,29.6439 59.5385,30.4039 61.4135,30.4039 M61.4135,36.9239 C59.0835,36.9239 57.0725,36.5339 55.3835,35.7519 C53.6925,34.9709 52.3005,33.8769 51.2065,32.4709 C50.1125,31.0639 49.3025,29.4029 48.7765,27.4839 C48.2515,25.5659 47.9885,23.4719 47.9885,21.1979 C47.9885,18.9259 48.2515,16.8159 48.7765,14.8699 C49.3025,12.9229 50.1125,11.2399 51.2065,9.8199 C52.3005,8.3989 53.6925,7.2829 55.3835,6.4739 C57.0725,5.6639 59.0835,5.2589 61.4135,5.2589 C63.7425,5.2589 65.7455,5.6639 67.4225,6.4739 C69.0985,7.2829 70.4835,8.3989 71.5775,9.8199 C72.6715,11.2399 73.4805,12.9229 74.0075,14.8699 C74.5325,16.8159 74.7955,18.9259 74.7955,21.1979 C74.7955,23.4719 74.5325,25.5659 74.0075,27.4839 C73.4805,29.4029 72.6715,31.0639 71.5775,32.4709 C70.4835,33.8769 69.0985,34.9709 67.4225,35.7519 C65.7455,36.5339 63.7425,36.9239 61.4135,36.9239" id="Fill-1309" fill="#343433"></path>
            <path d="M76.6706,5.8984 C77.4656,5.7564 78.2326,5.6574 78.9716,5.5994 C79.7106,5.5434 80.3636,5.5144 80.9326,5.5144 C81.4716,5.5144 82.0326,5.5364 82.6166,5.5784 C83.1976,5.6204 83.8586,5.7134 84.5976,5.8554 L88.1346,25.3314 C88.8446,22.2074 89.5556,18.9464 90.2656,15.5514 C90.9756,12.1564 91.6726,8.9244 92.3536,5.8554 C92.8656,5.7704 93.4336,5.6924 94.0586,5.6204 C94.6836,5.5504 95.3226,5.5144 95.9766,5.5144 C96.5446,5.5144 97.1266,5.5504 97.7236,5.6204 C98.3206,5.6924 98.8316,5.7704 99.2576,5.8554 L103.6906,25.5454 L107.2276,5.8554 C107.9666,5.7134 108.5916,5.6204 109.1026,5.5784 C109.6146,5.5364 110.1396,5.5144 110.6796,5.5144 C111.2476,5.5144 111.8446,5.5364 112.4696,5.5784 C113.0946,5.6204 113.8046,5.7134 114.6006,5.8554 L107.2706,36.2844 C106.8446,36.3694 106.2966,36.4554 105.6296,36.5404 C104.9616,36.6264 104.2296,36.6684 103.4346,36.6684 C102.6386,36.6684 101.8646,36.6184 101.1126,36.5194 C100.3586,36.4194 99.8546,36.3414 99.5986,36.2844 L95.5506,18.6414 L91.2466,36.2844 C90.9906,36.3414 90.5146,36.4194 89.8186,36.5194 C89.1216,36.6184 88.3756,36.6684 87.5806,36.6684 C86.7856,36.6684 86.0746,36.6264 85.4506,36.5404 C84.8246,36.4554 84.2996,36.3694 83.8726,36.2844 L76.6706,5.8984 Z" id="Fill-1311" fill="#343433"></path>
            <path d="M117.2856,5.7704 L135.2706,5.7704 C135.3836,6.3954 135.4696,6.9784 135.5256,7.5184 C135.5826,8.0574 135.6106,8.5694 135.6106,9.0524 C135.6106,9.9894 135.4976,11.1124 135.2706,12.4184 L124.8286,12.4184 L124.8286,17.1074 L133.0546,17.1074 C133.3096,18.3574 133.4376,19.4654 133.4376,20.4304 C133.4376,21.4254 133.3096,22.5344 133.0546,23.7554 L124.8286,23.7554 L124.8286,29.8074 L135.5256,29.8074 C135.7816,31.0004 135.9096,32.0804 135.9096,33.0464 C135.9096,34.0974 135.7816,35.2194 135.5256,36.4124 L117.2856,36.4124 L117.2856,5.7704 Z" id="Fill-1313" fill="#343433"></path>
            <path d="M139.7446,5.8559 C141.1366,5.7139 142.4226,5.5779 143.6016,5.4509 C144.7806,5.3229 146.0226,5.2589 147.3306,5.2589 C148.8926,5.2589 150.4556,5.4079 152.0186,5.7069 C153.5806,6.0049 154.9726,6.5239 156.1956,7.2619 C157.4166,8.0009 158.4116,9.0099 159.1786,10.2879 C159.9446,11.5669 160.3286,13.1859 160.3286,15.1459 C160.3286,16.1979 160.2076,17.1429 159.9666,17.9809 C159.7246,18.8189 159.4126,19.5649 159.0296,20.2179 C158.6456,20.8719 158.2196,21.4399 157.7506,21.9229 C157.2816,22.4069 156.8196,22.8179 156.3656,23.1579 L163.0146,36.2849 C162.3316,36.3989 161.5866,36.4839 160.7766,36.5409 C159.9666,36.5979 159.2356,36.6259 158.5816,36.6259 C158.0126,36.6259 157.3526,36.5979 156.5996,36.5409 C155.8466,36.4839 155.1866,36.3989 154.6186,36.2849 L148.5666,22.3489 L148.9496,22.1359 C149.2906,21.9649 149.6676,21.6809 150.0786,21.2839 C150.4906,20.8859 150.8746,20.4099 151.2296,19.8559 C151.5856,19.3019 151.8836,18.6839 152.1256,18.0019 C152.3656,17.3199 152.4876,16.6099 152.4876,15.8709 C152.4876,14.4509 152.0886,13.4139 151.2946,12.7599 C150.4986,12.1059 149.5186,11.7799 148.3536,11.7799 C148.0696,11.7799 147.8276,11.7939 147.6286,11.8219 C147.4296,11.8509 147.3016,11.8799 147.2456,11.9069 L147.2456,36.2849 C145.7396,36.5409 144.5036,36.6679 143.5376,36.6679 C142.4856,36.6679 141.2216,36.5409 139.7446,36.2849 L139.7446,5.8559 Z" id="Fill-1315" fill="#343433"></path>
            <path d="M166.1251,29.0828 C166.7781,28.9968 167.4031,28.9268 168.0011,28.8698 C168.5971,28.8128 169.1791,28.7838 169.7471,28.7838 C170.3161,28.7838 170.8981,28.8128 171.4951,28.8698 C172.0921,28.9268 172.7161,28.9968 173.3701,29.0828 C173.4831,29.7358 173.5691,30.3608 173.6261,30.9578 C173.6821,31.5538 173.7111,32.1378 173.7111,32.7048 C173.7111,33.2738 173.6821,33.8558 173.6261,34.4528 C173.5691,35.0488 173.4831,35.6748 173.3701,36.3278 C172.7161,36.4408 172.0921,36.5258 171.4951,36.5828 C170.8981,36.6398 170.3161,36.6678 169.7471,36.6678 C169.1791,36.6678 168.5971,36.6398 168.0011,36.5828 C167.4031,36.5258 166.7781,36.4408 166.1251,36.3278 C166.0111,35.6748 165.9261,35.0488 165.8701,34.4528 C165.8121,33.8558 165.7841,33.2738 165.7841,32.7048 C165.7841,32.1378 165.8121,31.5538 165.8701,30.9578 C165.9261,30.3608 166.0111,29.7358 166.1251,29.0828" id="Fill-1317" fill="#B2314A"></path>
            <path d="M197.4911,29.0828 C198.4291,31.1278 199.0531,33.2308 199.3671,35.3898 C198.5421,35.7028 197.7751,35.9588 197.0651,36.1568 C196.3551,36.3568 195.6731,36.5048 195.0191,36.6038 C194.3651,36.7038 193.7201,36.7748 193.0801,36.8168 C192.4411,36.8608 191.7801,36.8818 191.0991,36.8818 C188.6831,36.8818 186.5601,36.4908 184.7271,35.7098 C182.8941,34.9288 181.3601,33.8418 180.1241,32.4498 C178.8881,31.0578 177.9581,29.3958 177.3331,27.4628 C176.7071,25.5308 176.3951,23.4288 176.3951,21.1558 C176.3951,18.8828 176.7221,16.7738 177.3751,14.8268 C178.0291,12.8808 178.9741,11.1978 180.2101,9.7768 C181.4461,8.3558 182.9731,7.2478 184.7911,6.4528 C186.6081,5.6568 188.6691,5.2598 190.9711,5.2598 C192.3341,5.2598 193.6271,5.3588 194.8491,5.5568 C196.0711,5.7568 197.4341,6.1538 198.9401,6.7508 C198.8831,7.9158 198.6701,9.0458 198.3011,10.1388 C197.9311,11.2328 197.5481,12.1918 197.1501,13.0158 C196.5811,12.8178 196.0641,12.6468 195.5941,12.5038 C195.1261,12.3618 194.6781,12.2478 194.2521,12.1628 C193.8261,12.0778 193.4001,12.0138 192.9731,11.9718 C192.5471,11.9288 192.0931,11.9068 191.6101,11.9068 C189.3081,11.9068 187.5251,12.6818 186.2611,14.2298 C184.9971,15.7788 184.3651,18.0878 184.3651,21.1558 C184.3651,27.1788 186.8941,30.1908 191.9511,30.1908 C192.8601,30.1908 193.7201,30.1048 194.5291,29.9348 C195.3391,29.7638 196.3261,29.4808 197.4911,29.0828" id="Fill-1319" fill="#343433"></path>
            <path d="M213.6432,30.4039 C217.2802,30.4039 219.0982,27.3349 219.0982,21.1979 C219.0982,15.0049 217.2932,11.9069 213.6862,11.9069 C209.9932,11.9069 208.1462,15.0049 208.1462,21.1979 C208.1462,24.2959 208.5932,26.6039 209.4882,28.1239 C210.3832,29.6439 211.7682,30.4039 213.6432,30.4039 M213.6432,36.9239 C211.3142,36.9239 209.3032,36.5339 207.6132,35.7519 C205.9222,34.9709 204.5302,33.8769 203.4362,32.4709 C202.3422,31.0639 201.5332,29.4029 201.0072,27.4839 C200.4812,25.5659 200.2192,23.4719 200.2192,21.1979 C200.2192,18.9259 200.4812,16.8159 201.0072,14.8699 C201.5332,12.9229 202.3422,11.2399 203.4362,9.8199 C204.5302,8.3989 205.9222,7.2829 207.6132,6.4739 C209.3032,5.6639 211.3142,5.2589 213.6432,5.2589 C215.9722,5.2589 217.9762,5.6639 219.6522,6.4739 C221.3282,7.2829 222.7142,8.3989 223.8072,9.8199 C224.9012,11.2399 225.7112,12.9229 226.2372,14.8699 C226.7622,16.8159 227.0262,18.9259 227.0262,21.1979 C227.0262,23.4719 226.7622,25.5659 226.2372,27.4839 C225.7112,29.4029 224.9012,31.0639 223.8072,32.4709 C222.7142,33.8769 221.3282,34.9709 219.6522,35.7519 C217.9762,36.5339 215.9722,36.9239 213.6432,36.9239" id="Fill-1321" fill="#343433"></path>
            <path d="M238.8735,30.233 C239.0725,30.262 239.3005,30.276 239.5555,30.276 L240.3655,30.276 C241.4735,30.276 242.5175,30.141 243.4975,29.871 C244.4775,29.601 245.3235,29.125 246.0335,28.443 C246.7425,27.762 247.3045,26.838 247.7165,25.673 C248.1285,24.508 248.3345,23.017 248.3345,21.199 C248.3345,19.408 248.1215,17.917 247.6955,16.724 C247.2695,15.53 246.7075,14.586 246.0125,13.889 C245.3155,13.194 244.4995,12.696 243.5615,12.398 C242.6235,12.099 241.6445,11.95 240.6215,11.95 C240.0525,11.95 239.6405,11.957 239.3855,11.971 C239.1285,11.986 238.9585,11.993 238.8735,11.993 L238.8735,30.233 Z M231.3295,5.856 C231.7555,5.799 232.2955,5.735 232.9495,5.664 C233.6035,5.593 234.3135,5.53 235.0805,5.472 C235.8475,5.416 236.6355,5.365 237.4465,5.323 C238.2555,5.281 239.0445,5.259 239.8115,5.259 C245.1805,5.259 249.2585,6.602 252.0425,9.286 C254.8265,11.971 256.2195,15.971 256.2195,21.283 C256.2195,26.682 254.7985,30.639 251.9575,33.153 C249.1155,35.667 244.9105,36.925 239.3425,36.925 C237.9215,36.925 236.5515,36.86 235.2295,36.732 C233.9085,36.604 232.6085,36.455 231.3295,36.285 L231.3295,5.856 Z" id="Fill-1323" fill="#343433"></path>
            <path d="M260.5235,5.7704 L278.5085,5.7704 C278.6215,6.3954 278.7075,6.9784 278.7635,7.5184 C278.8205,8.0574 278.8485,8.5694 278.8485,9.0524 C278.8485,9.9894 278.7355,11.1124 278.5085,12.4184 L268.0665,12.4184 L268.0665,17.1074 L276.2925,17.1074 C276.5475,18.3574 276.6755,19.4654 276.6755,20.4304 C276.6755,21.4254 276.5475,22.5344 276.2925,23.7554 L268.0665,23.7554 L268.0665,29.8074 L278.7635,29.8074 C279.0195,31.0004 279.1475,32.0804 279.1475,33.0464 C279.1475,34.0974 279.0195,35.2194 278.7635,36.4124 L260.5235,36.4124 L260.5235,5.7704 Z" id="Fill-1325" fill="#343433"></path>
            <path d="M282.9828,5.8559 C284.3748,5.7139 285.6608,5.5779 286.8398,5.4509 C288.0178,5.3229 289.2608,5.2589 290.5688,5.2589 C292.1308,5.2589 293.6938,5.4079 295.2568,5.7069 C296.8188,6.0049 298.2108,6.5239 299.4338,7.2619 C300.6548,8.0009 301.6488,9.0099 302.4158,10.2879 C303.1828,11.5669 303.5668,13.1859 303.5668,15.1459 C303.5668,16.1979 303.4458,17.1429 303.2058,17.9809 C302.9638,18.8189 302.6508,19.5649 302.2668,20.2179 C301.8828,20.8719 301.4578,21.4399 300.9888,21.9229 C300.5198,22.4069 300.0578,22.8179 299.6038,23.1579 L306.2528,36.2849 C305.5698,36.3989 304.8248,36.4839 304.0148,36.5409 C303.2058,36.5979 302.4728,36.6259 301.8198,36.6259 C301.2508,36.6259 300.5898,36.5979 299.8378,36.5409 C299.0848,36.4839 298.4248,36.3989 297.8568,36.2849 L291.8048,22.3489 L292.1888,22.1359 C292.5288,21.9649 292.9058,21.6809 293.3168,21.2839 C293.7288,20.8859 294.1128,20.4099 294.4678,19.8559 C294.8238,19.3019 295.1218,18.6839 295.3628,18.0019 C295.6038,17.3199 295.7258,16.6099 295.7258,15.8709 C295.7258,14.4509 295.3278,13.4139 294.5328,12.7599 C293.7368,12.1059 292.7568,11.7799 291.5918,11.7799 C291.3078,11.7799 291.0658,11.7939 290.8678,11.8219 C290.6678,11.8509 290.5398,11.8799 290.4838,11.9069 L290.4838,36.2849 C288.9778,36.5409 287.7418,36.6679 286.7758,36.6679 C285.7248,36.6679 284.4598,36.5409 282.9828,36.2849 L282.9828,5.8559 Z" id="Fill-1327" fill="#343433"></path>
            <path d="M315.5854,23.4146 C314.5634,23.0456 313.6314,22.6046 312.7934,22.0926 C311.9554,21.5816 311.2384,20.9786 310.6414,20.2816 C310.0444,19.5856 309.5824,18.7836 309.2564,17.8736 C308.9294,16.9646 308.7664,15.8996 308.7664,14.6776 C308.7664,13.1716 309.0214,11.8366 309.5334,10.6716 C310.0444,9.5066 310.7624,8.5196 311.6864,7.7096 C312.6084,6.8996 313.7234,6.2896 315.0314,5.8776 C316.3374,5.4656 317.8004,5.2586 319.4204,5.2586 C320.8704,5.2586 322.2684,5.4016 323.6184,5.6846 C324.9674,5.9696 326.4104,6.3826 327.9444,6.9216 C327.8304,7.8306 327.6244,8.8326 327.3264,9.9256 C327.0284,11.0196 326.6514,12.0496 326.1974,13.0156 C325.4584,12.7036 324.5914,12.3766 323.5974,12.0356 C322.6024,11.6946 321.3664,11.5246 319.8894,11.5246 C319.4354,11.5246 319.0014,11.5666 318.5894,11.6516 C318.1774,11.7366 317.8074,11.8726 317.4824,12.0566 C317.1544,12.2416 316.8914,12.4976 316.6934,12.8236 C316.4944,13.1506 316.3944,13.5556 316.3944,14.0386 C316.3944,14.8626 316.6644,15.4736 317.2054,15.8716 C317.7444,16.2686 318.3834,16.6106 319.1224,16.8936 L321.1684,17.7036 C322.3614,18.1876 323.4334,18.6776 324.3854,19.1736 C325.3374,19.6716 326.1544,20.2676 326.8364,20.9636 C327.5184,21.6606 328.0434,22.4976 328.4134,23.4786 C328.7824,24.4586 328.9674,25.6456 328.9674,27.0366 C328.9674,28.5436 328.7034,29.8996 328.1784,31.1066 C327.6524,32.3146 326.8784,33.3516 325.8564,34.2186 C324.8334,35.0846 323.5764,35.7516 322.0844,36.2216 C320.5924,36.6906 318.8814,36.9246 316.9494,36.9246 C315.1864,36.9246 313.6314,36.7816 312.2824,36.4976 C310.9324,36.2136 309.4764,35.7736 307.9144,35.1766 C308.0274,34.1826 308.2264,33.1246 308.5114,32.0016 C308.7944,30.8796 309.1354,29.7366 309.5334,28.5716 C312.1474,29.7076 314.4194,30.2756 316.3524,30.2756 C317.8004,30.2756 318.9304,30.0556 319.7404,29.6146 C320.5504,29.1746 320.9554,28.4146 320.9554,27.3346 C320.9554,26.8806 320.8704,26.4906 320.6994,26.1626 C320.5284,25.8366 320.3014,25.5596 320.0174,25.3326 C319.7334,25.1046 319.4134,24.9136 319.0584,24.7566 C318.7034,24.6006 318.3404,24.4516 317.9724,24.3086 L315.5854,23.4146 Z" id="Fill-1329" fill="#343433"></path>
        </g>
    </g>
</svg>